<?xml version="1.0" encoding="UTF-8"?>
<svg version="1.1" xmlns="http://www.w3.org/2000/svg" 
     width="185" height="155" viewBox="445 365 185 155" 
     preserveAspectRatio="xMidYMid meet">
  
  <g transform="translate(0, 1024) scale(0.1, -0.1)" fill="hsl(222 15% 45%)" stroke="none">
    <path fill="hsl(222 15% 45%)" d="M4795 6571 c-170 -49 -298 -176 -334 -332 -7 -27 -11 -261 -11 -597 l0 -553 25 -24 24 -25 689 0 c757 0 734 -2 854 62 70 37 166 135 202 207 53 103 56 141 56 704 l0 519 -29 29 -29 29 -694 -1 c-625 0 -699 -2 -753 -18z m1363 -618 c2 -497 2 -513 -19 -567 -27 -72 -101 -154 -177 -194 -33 -18 -63 -32 -66 -32 -3 0 -6 162 -6 360 0 289 -3 360 -13 360 -7 0 -63 -51 -125 -113 l-112 -114 0 -251 0 -252 -45 0 -45 0 0 199 c0 110 -4 202 -9 205 -4 3 -36 -22 -69 -56 -68 -69 -63 -69 -141 1 -18 17 -38 31 -42 31 -5 0 -9 -85 -9 -190 l0 -190 -50 0 -50 0 0 211 c0 123 -4 209 -9 207 -5 -1 -61 -54 -125 -116 l-116 -112 0 -95 0 -95 -175 0 c-96 0 -175 3 -175 6 0 11 591 589 606 592 8 2 50 -29 95 -70 44 -40 87 -77 95 -81 11 -6 67 43 217 191 262 259 277 273 291 265 6 -3 32 -22 58 -40 36 -26 49 -31 53 -21 3 8 4 79 3 158 l-3 145 -155 2 c-87 2 -162 -1 -170 -7 -12 -8 -5 -19 40 -65 l54 -55 -190 -191 c-163 -163 -193 -189 -205 -177 -106 99 -171 149 -188 143 -10 -3 -149 -133 -307 -289 l-289 -283 -3 400 c-3 445 -1 463 61 553 18 27 55 64 81 82 93 62 77 61 786 59 l645 -2 3 -512z"/>
  </g>
</svg>